<svg width="10" height="9" viewBox="0 0 10 9" fill="none" xmlns="http://www.w3.org/2000/svg">
<path d="M1.74007 3.73059C1.31523 3.73066 0.970777 4.07512 0.970703 4.49995C0.97063 4.92479 1.31497 5.26912 1.7398 5.26905L4.23339 5.26862L4.23296 7.76221C4.23289 8.18704 4.57722 8.53138 5.00206 8.53131C5.42689 8.53123 5.77135 8.18678 5.77142 7.76194L5.77185 5.26835L8.26353 5.26792C8.68836 5.26784 9.03282 4.92339 9.03289 4.49855C9.03296 4.07372 8.68863 3.72938 8.26379 3.72945L5.77212 3.72989L5.77255 1.23821C5.77263 0.813379 5.42829 0.469043 5.00346 0.469116C4.57862 0.46919 4.23417 0.813646 4.23409 1.23848L4.23366 3.73015L1.74007 3.73059Z" fill="#DFE6E9"/>
</svg>
